<?xml version="1.0" standalone="no"?><!DOCTYPE svg PUBLIC "-//W3C//DTD SVG 1.1//EN" "http://www.w3.org/Graphics/SVG/1.1/DTD/svg11.dtd"><svg t="1705913233095" class="icon" viewBox="0 0 1024 1024" version="1.1" xmlns="http://www.w3.org/2000/svg" p-id="994" xmlns:xlink="http://www.w3.org/1999/xlink" width="200" height="200"><path d="M511.1296 957.44A124.0576 124.0576 0 0 1 450.56 941.5168L201.7792 801.792a123.648 123.648 0 0 1-63.0784-107.52V197.9392a123.7504 123.7504 0 0 1 123.5968-123.5968h497.2544a123.6992 123.6992 0 0 1 123.5456 123.5968v496.1792a123.648 123.648 0 0 1-62.976 107.52l-248.4736 139.6736A123.4432 123.4432 0 0 1 511.1296 957.44zM262.2976 135.7824a62.2592 62.2592 0 0 0-62.1568 62.1568v496.128a62.2592 62.2592 0 0 0 31.744 54.1696l248.832 139.7248a62.5664 62.5664 0 0 0 60.8256 0l248.4736-139.6736a62.208 62.208 0 0 0 31.6416-54.1184V197.9392a62.208 62.208 0 0 0-62.1056-62.1568z" fill="#00A0E9" p-id="995"></path><path d="M624.0768 668.5696a30.72 30.72 0 0 1-14.336-3.5328l-100.4032-52.7872-100.4032 52.7872a30.72 30.72 0 0 1-44.544-32.4096l19.1488-111.7696-81.2032-79.2064A30.72 30.72 0 0 1 319.3856 389.12l112.2304-16.1792L481.792 271.36a30.72 30.72 0 0 1 55.1424 0l50.176 101.6832L699.3408 389.12a30.72 30.72 0 0 1 17.0496 52.3776l-81.2544 79.2064 19.2 111.7696a30.72 30.72 0 0 1-30.2592 35.84zM509.3376 546.816a30.72 30.72 0 0 1 14.336 3.5328l59.5968 31.3344-11.4176-66.56a30.72 30.72 0 0 1 8.8576-27.1872l48.2304-47.0016-66.56-9.728a30.72 30.72 0 0 1-23.1936-16.4864l-29.8496-60.4672L479.5392 414.72a30.72 30.72 0 0 1-23.0912 16.7936l-66.56 9.728 48.2304 47.0016a30.72 30.72 0 0 1 8.8064 27.1872l-11.3664 66.56 59.5968-31.3344a30.72 30.72 0 0 1 14.1824-3.84z" fill="#F39800" p-id="996"></path></svg>